<?xml version="1.0" encoding="UTF-8"?>
<svg id="Layer_1" data-name="Layer 1" xmlns="http://www.w3.org/2000/svg" xmlns:xlink="http://www.w3.org/1999/xlink" viewBox="0 0 60 60">
  <defs>
    <style>
      .cls-1 {
        fill: #0096dd;
      }

      .cls-1, .cls-2, .cls-3, .cls-4, .cls-5, .cls-6, .cls-7 {
        stroke-width: 0px;
      }

      .cls-1, .cls-2, .cls-5, .cls-7 {
        fill-rule: evenodd;
      }

      .cls-8 {
        clip-path: url(#clippath);
      }

      .cls-2 {
        fill: #965d08;
        opacity: .4;
      }

      .cls-3 {
        fill: url(#linear-gradient);
      }

      .cls-4 {
        clip-rule: evenodd;
        fill: none;
      }

      .cls-5 {
        fill: #0085dd;
      }

      .cls-6 {
        fill: url(#linear-gradient-2);
      }

      .cls-7 {
        fill: #fff;
      }
    </style>
    <clipPath id="clippath">
      <path class="cls-4" d="M37.99,10.81h6.41c1.99,0,3.79,1.04,4.79,2.76,1,1.73,1,3.8,0,5.53l-3.2,5.55,3.2,5.55c1,1.73,1,3.8,0,5.53-1,1.73-2.79,2.76-4.79,2.76h-6.41l-3.21,5.55c-1,1.73-2.79,2.76-4.79,2.76s-3.79-1.04-4.79-2.76l-3.21-5.55h-6.41c-1.99,0-3.79-1.04-4.79-2.76-1-1.73-1-3.8,0-5.53l3.2-5.55-3.2-5.55c-1-1.73-1-3.8,0-5.53,1-1.73,2.79-2.76,4.79-2.76h6.41l3.21-5.55c1-1.73,2.79-2.76,4.79-2.76s3.79,1.04,4.79,2.76l3.21,5.55Z"/>
    </clipPath>
    <linearGradient id="linear-gradient" x1="30" y1="43.19" x2="30" y2="2.5" gradientUnits="userSpaceOnUse">
      <stop offset="0" stop-color="#0085dd"/>
      <stop offset="1" stop-color="#0096dd"/>
    </linearGradient>
    <linearGradient id="linear-gradient-2" x1="30.12" y1="33.01" x2="30.12" y2="16.68" xlink:href="#linear-gradient"/>
  </defs>
  <g class="cls-8">
    <rect class="cls-3" x="9.82" y="2.5" width="40.36" height="44.31"/>
  </g>
  <path class="cls-5" d="M42.52,57.5v-19.01h-4.53l-3.21,5.55c-1,1.73-2.79,2.76-4.79,2.76s-3.79-1.04-4.79-2.76l-3.21-5.55h-4.53v19.01l12.52-7.1,12.52,7.1Z"/>
  <path class="cls-1" d="M37.98,38.52l-3.19,5.53c-1,1.73-2.79,2.76-4.79,2.76s-3.79-1.04-4.79-2.76l-3.19-5.53v16.41l7.98-4.52,7.98,4.52v-16.41Z"/>
  <path class="cls-2" d="M42.52,39.44v-.95h-4.53l-3.21,5.55c-1,1.73-2.79,2.76-4.79,2.76s-3.79-1.04-4.79-2.76l-3.21-5.55h-4.53v.95h3.99l2.93,5.08c1.17,2.02,3.27,3.24,5.61,3.24s4.44-1.22,5.61-3.24l2.93-5.08h3.99Z"/>
  <path class="cls-7" d="M31.65,7.07l3.7,6.41c.35.61.95.95,1.65.95h7.4c.7,0,1.3.35,1.65.95.35.61.35,1.3,0,1.91l-3.7,6.41c-.35.61-.35,1.3,0,1.91l3.7,6.41c.35.61.35,1.3,0,1.91-.35.61-.95.95-1.65.95h-7.4c-.7,0-1.3.35-1.65.95l-3.7,6.41c-.35.61-.95.95-1.65.95s-1.3-.35-1.65-.95l-3.7-6.41c-.35-.61-.95-.95-1.65-.95h-7.4c-.7,0-1.3-.35-1.65-.95-.35-.61-.35-1.3,0-1.91l3.7-6.41c.35-.61.35-1.3,0-1.91l-3.7-6.41c-.35-.61-.35-1.3,0-1.91.35-.61.95-.95,1.65-.95h7.4c.7,0,1.3-.35,1.65-.95l3.7-6.41c.35-.61.95-.95,1.65-.95s1.3.35,1.65.95"/>
  <path class="cls-6" d="M34.82,27.26c0,.83-.11,1.6-.34,2.31-.23.71-.57,1.32-1.02,1.84-.45.51-.98.9-1.6,1.18s-1.38.42-2.28.42c-.96,0-1.78-.11-2.46-.31-.69-.2-1.26-.42-1.7-.66v-3.49h.29c.16.11.34.24.54.39.2.14.47.29.79.45.31.15.61.27.93.37s.66.15,1.05.15c.33,0,.69-.05,1.08-.16.39-.1.7-.29.93-.56.17-.21.31-.45.41-.72.1-.26.15-.62.15-1.06,0-.37-.06-.69-.19-.96-.12-.27-.29-.48-.49-.65-.29-.24-.65-.4-1.06-.47-.41-.07-.77-.1-1.07-.1-.47,0-.93.05-1.38.14-.45.09-.83.19-1.16.3h-.28v-8.98h8.51v3.02h-5.46v2.66c.17-.01.38-.03.62-.04s.42-.02.56-.02c.62,0,1.19.08,1.71.23.52.15.99.39,1.39.71.49.39.87.92,1.14,1.58.27.66.41,1.47.41,2.42Z"/>
</svg>