<?xml version="1.0" encoding="UTF-8"?>
<svg id="Layer_1" data-name="Layer 1" xmlns="http://www.w3.org/2000/svg" xmlns:xlink="http://www.w3.org/1999/xlink" viewBox="0 0 60 60">
  <defs>
    <style>
      .cls-1 {
        clip-path: url(#clippath);
      }

      .cls-2 {
        fill: #965d08;
        opacity: .4;
      }

      .cls-2, .cls-3, .cls-4, .cls-5, .cls-6, .cls-7, .cls-8 {
        stroke-width: 0px;
      }

      .cls-2, .cls-5, .cls-7, .cls-8 {
        fill-rule: evenodd;
      }

      .cls-3 {
        fill: url(#linear-gradient);
      }

      .cls-4 {
        clip-rule: evenodd;
        fill: none;
      }

      .cls-5 {
        fill: #009edc;
      }

      .cls-6 {
        fill: url(#linear-gradient-2);
      }

      .cls-7 {
        fill: #fff;
      }

      .cls-8 {
        fill: #008ede;
      }
    </style>
    <clipPath id="clippath">
      <path class="cls-4" d="M37.99,10.81h6.41c1.99,0,3.79,1.04,4.79,2.76,1,1.73,1,3.8,0,5.53l-3.2,5.55,3.2,5.55c1,1.73,1,3.8,0,5.53-1,1.73-2.79,2.76-4.79,2.76h-6.41l-3.21,5.55c-1,1.73-2.79,2.76-4.79,2.76s-3.79-1.04-4.79-2.76l-3.21-5.55h-6.41c-1.99,0-3.79-1.04-4.79-2.76-1-1.73-1-3.8,0-5.53l3.2-5.55-3.2-5.55c-1-1.73-1-3.8,0-5.53,1-1.73,2.79-2.76,4.79-2.76h6.41l3.21-5.55c1-1.73,2.79-2.76,4.79-2.76s3.79,1.04,4.79,2.76l3.21,5.55Z"/>
    </clipPath>
    <linearGradient id="linear-gradient" x1="30" y1="43.19" x2="30" y2="2.5" gradientUnits="userSpaceOnUse">
      <stop offset="0" stop-color="#008ede"/>
      <stop offset="1" stop-color="#009edc"/>
    </linearGradient>
    <linearGradient id="linear-gradient-2" x1="30.13" y1="33.34" x2="30.13" y2="16.71" xlink:href="#linear-gradient"/>
  </defs>
  <g class="cls-1">
    <rect class="cls-3" x="9.82" y="2.5" width="40.36" height="44.31"/>
  </g>
  <path class="cls-8" d="M42.52,57.5v-19.01h-4.53l-3.21,5.55c-1,1.73-2.79,2.76-4.79,2.76s-3.79-1.04-4.79-2.76l-3.21-5.55h-4.53v19.01l12.52-7.1,12.52,7.1Z"/>
  <path class="cls-5" d="M37.98,38.52l-3.19,5.53c-1,1.73-2.79,2.76-4.79,2.76s-3.79-1.04-4.79-2.76l-3.19-5.53v16.41l7.98-4.52,7.98,4.52v-16.41Z"/>
  <path class="cls-2" d="M42.52,39.44v-.95h-4.53l-3.21,5.55c-1,1.73-2.79,2.76-4.79,2.76s-3.79-1.04-4.79-2.76l-3.21-5.55h-4.53v.95h3.99l2.93,5.08c1.17,2.02,3.27,3.24,5.61,3.24s4.44-1.22,5.61-3.24l2.93-5.08h3.99Z"/>
  <path class="cls-7" d="M31.65,7.07l3.7,6.41c.35.61.95.95,1.65.95h7.4c.7,0,1.3.35,1.65.95.35.61.35,1.3,0,1.91l-3.7,6.41c-.35.61-.35,1.3,0,1.91l3.7,6.41c.35.61.35,1.3,0,1.91-.35.61-.95.95-1.65.95h-7.4c-.7,0-1.3.35-1.65.95l-3.7,6.41c-.35.61-.95.95-1.65.95s-1.3-.35-1.65-.95l-3.7-6.41c-.35-.61-.95-.95-1.65-.95h-7.4c-.7,0-1.3-.35-1.65-.95-.35-.61-.35-1.3,0-1.91l3.7-6.41c.35-.61.35-1.3,0-1.91l-3.7-6.41c-.35-.61-.35-1.3,0-1.91.35-.61.95-.95,1.65-.95h7.4c.7,0,1.3-.35,1.65-.95l3.7-6.41c.35-.61.95-.95,1.65-.95s1.3.35,1.65.95"/>
  <path class="cls-6" d="M35.04,27.56c0,1.68-.43,3.07-1.29,4.15-.86,1.09-2.03,1.63-3.53,1.63-.75,0-1.42-.13-2-.4-.59-.27-1.08-.66-1.49-1.19-.49-.62-.86-1.41-1.12-2.38-.26-.97-.39-2.14-.39-3.49s.12-2.65.36-3.74c.24-1.09.64-2.05,1.18-2.89.52-.79,1.21-1.42,2.05-1.86.85-.45,1.85-.67,3-.67.42,0,.84.03,1.26.1.42.07.71.12.87.17v3.15h-.23c-.15-.09-.4-.2-.74-.32-.35-.12-.74-.18-1.18-.18-1.01,0-1.78.33-2.33.99-.55.66-.88,1.6-1.01,2.84.42-.34.85-.6,1.28-.81.43-.2.92-.3,1.47-.3.46,0,.89.08,1.3.23.41.15.77.38,1.08.67.44.42.8.98,1.06,1.67s.39,1.57.39,2.64ZM31.29,29.98c.17-.26.29-.54.38-.84.09-.3.13-.76.13-1.38,0-.52-.05-.94-.16-1.28-.1-.34-.25-.6-.44-.81-.19-.2-.41-.34-.65-.41s-.5-.11-.77-.11c-.22,0-.46.04-.69.11-.24.07-.46.16-.67.27,0,.07,0,.19,0,.35,0,.17,0,.37,0,.62,0,.92.06,1.65.19,2.21s.29.98.49,1.27c.15.23.32.39.51.49.19.1.4.15.61.15.17,0,.36-.05.56-.16.2-.11.37-.27.51-.48Z"/>
</svg>