<?xml version="1.0" encoding="UTF-8"?>
<svg id="Layer_1" data-name="Layer 1" xmlns="http://www.w3.org/2000/svg" xmlns:xlink="http://www.w3.org/1999/xlink" viewBox="0 0 60 60">
  <defs>
    <style>
      .cls-1 {
        fill: #0096dd;
      }

      .cls-1, .cls-2, .cls-3, .cls-4, .cls-5, .cls-6, .cls-7 {
        stroke-width: 0px;
      }

      .cls-1, .cls-2, .cls-4, .cls-7 {
        fill-rule: evenodd;
      }

      .cls-8 {
        clip-path: url(#clippath);
      }

      .cls-2 {
        fill: #965d08;
        opacity: .4;
      }

      .cls-3 {
        fill: url(#linear-gradient);
      }

      .cls-4 {
        fill: #00a6d9;
      }

      .cls-5 {
        clip-rule: evenodd;
        fill: none;
      }

      .cls-6 {
        fill: url(#linear-gradient-2);
      }

      .cls-7 {
        fill: #fff;
      }
    </style>
    <clipPath id="clippath">
      <path class="cls-5" d="M37.99,10.81h6.41c1.99,0,3.79,1.04,4.79,2.76,1,1.73,1,3.8,0,5.53l-3.2,5.55,3.2,5.55c1,1.73,1,3.8,0,5.53-1,1.73-2.79,2.76-4.79,2.76h-6.41l-3.21,5.55c-1,1.73-2.79,2.76-4.79,2.76s-3.79-1.04-4.79-2.76l-3.21-5.55h-6.41c-1.99,0-3.79-1.04-4.79-2.76-1-1.73-1-3.8,0-5.53l3.2-5.55-3.2-5.55c-1-1.73-1-3.8,0-5.53,1-1.73,2.79-2.76,4.79-2.76h6.41l3.21-5.55c1-1.73,2.79-2.76,4.79-2.76s3.79,1.04,4.79,2.76l3.21,5.55Z"/>
    </clipPath>
    <linearGradient id="linear-gradient" x1="30" y1="43.19" x2="30" y2="2.5" gradientUnits="userSpaceOnUse">
      <stop offset="0" stop-color="#0096dd"/>
      <stop offset="1" stop-color="#00a6d9"/>
    </linearGradient>
    <linearGradient id="linear-gradient-2" x1="30" y1="33.34" x2="30" y2="17.34" xlink:href="#linear-gradient"/>
  </defs>
  <g class="cls-8">
    <rect class="cls-3" x="9.82" y="2.5" width="40.36" height="44.31"/>
  </g>
  <path class="cls-1" d="M42.52,57.5v-19.01h-4.53l-3.21,5.55c-1,1.73-2.79,2.76-4.79,2.76s-3.79-1.04-4.79-2.76l-3.21-5.55h-4.53v19.01l12.52-7.1,12.52,7.1Z"/>
  <path class="cls-4" d="M37.98,38.52l-3.19,5.53c-1,1.73-2.79,2.76-4.79,2.76s-3.79-1.04-4.79-2.76l-3.19-5.53v16.41l7.98-4.52,7.98,4.52v-16.41Z"/>
  <path class="cls-2" d="M42.52,39.44v-.95h-4.53l-3.21,5.55c-1,1.73-2.79,2.76-4.79,2.76s-3.79-1.04-4.79-2.76l-3.21-5.55h-4.53v.95h3.99l2.93,5.08c1.17,2.02,3.27,3.24,5.61,3.24s4.44-1.22,5.61-3.24l2.93-5.08h3.99Z"/>
  <path class="cls-7" d="M31.65,7.07l3.7,6.41c.35.61.95.95,1.65.95h7.4c.7,0,1.3.35,1.65.95.35.61.35,1.3,0,1.91l-3.7,6.41c-.35.61-.35,1.3,0,1.91l3.7,6.41c.35.61.35,1.3,0,1.91-.35.61-.95.95-1.65.95h-7.4c-.7,0-1.3.35-1.65.95l-3.7,6.41c-.35.61-.95.95-1.65.95s-1.3-.35-1.65-.95l-3.7-6.41c-.35-.61-.95-.95-1.65-.95h-7.4c-.7,0-1.3-.35-1.65-.95-.35-.61-.35-1.3,0-1.91l3.7-6.41c.35-.61.35-1.3,0-1.91l-3.7-6.41c-.35-.61-.35-1.3,0-1.91.35-.61.95-.95,1.65-.95h7.4c.7,0,1.3-.35,1.65-.95l3.7-6.41c.35-.61.95-.95,1.65-.95s1.3.35,1.65.95"/>
  <path class="cls-6" d="M34.72,20.52l-5.47,12.82h-3.59l5.74-12.98h-6.13v-3.02h9.45v3.18Z"/>
</svg>