<?xml version="1.0" encoding="UTF-8"?>
<svg id="Layer_1" data-name="Layer 1" xmlns="http://www.w3.org/2000/svg" xmlns:xlink="http://www.w3.org/1999/xlink" viewBox="0 0 60 60">
  <defs>
    <style>
      .cls-1 {
        clip-path: url(#clippath);
      }

      .cls-2 {
        fill: #965d08;
        opacity: .4;
      }

      .cls-2, .cls-3, .cls-4, .cls-5, .cls-6, .cls-7, .cls-8 {
        stroke-width: 0px;
      }

      .cls-2, .cls-4, .cls-6, .cls-8 {
        fill-rule: evenodd;
      }

      .cls-3 {
        fill: url(#linear-gradient);
      }

      .cls-4 {
        fill: #1cadd7;
      }

      .cls-5 {
        clip-rule: evenodd;
        fill: none;
      }

      .cls-6 {
        fill: #009edc;
      }

      .cls-7 {
        fill: url(#linear-gradient-2);
      }

      .cls-8 {
        fill: #fff;
      }
    </style>
    <clipPath id="clippath">
      <path class="cls-5" d="M37.99,10.81h6.41c1.99,0,3.79,1.04,4.79,2.76,1,1.73,1,3.8,0,5.53l-3.2,5.55,3.2,5.55c1,1.73,1,3.8,0,5.53-1,1.73-2.79,2.76-4.79,2.76h-6.41l-3.21,5.55c-1,1.73-2.79,2.76-4.79,2.76s-3.79-1.04-4.79-2.76l-3.21-5.55h-6.41c-1.99,0-3.79-1.04-4.79-2.76-1-1.73-1-3.8,0-5.53l3.2-5.55-3.2-5.55c-1-1.73-1-3.8,0-5.53,1-1.73,2.79-2.76,4.79-2.76h6.41l3.21-5.55c1-1.73,2.79-2.76,4.79-2.76s3.79,1.04,4.79,2.76l3.21,5.55Z"/>
    </clipPath>
    <linearGradient id="linear-gradient" x1="30" y1="43.19" x2="30" y2="2.5" gradientUnits="userSpaceOnUse">
      <stop offset="0" stop-color="#009edc"/>
      <stop offset=".15" stop-color="#04a0db"/>
      <stop offset="1" stop-color="#1cadd7"/>
    </linearGradient>
    <linearGradient id="linear-gradient-2" x1="30" y1="33.7" x2="30" y2="16.98" xlink:href="#linear-gradient"/>
  </defs>
  <g class="cls-1">
    <rect class="cls-3" x="9.82" y="2.5" width="40.36" height="44.31"/>
  </g>
  <path class="cls-6" d="M42.52,57.5v-19.01h-4.53l-3.21,5.55c-1,1.73-2.79,2.76-4.79,2.76s-3.79-1.04-4.79-2.76l-3.21-5.55h-4.53v19.01l12.52-7.1,12.52,7.1Z"/>
  <path class="cls-4" d="M37.98,38.52l-3.19,5.53c-1,1.73-2.79,2.76-4.79,2.76s-3.79-1.04-4.79-2.76l-3.19-5.53v16.41l7.98-4.52,7.98,4.52v-16.41Z"/>
  <path class="cls-2" d="M42.52,39.44v-.95h-4.53l-3.21,5.55c-1,1.73-2.79,2.76-4.79,2.76s-3.79-1.04-4.79-2.76l-3.21-5.55h-4.53v.95h3.99l2.93,5.08c1.17,2.02,3.27,3.24,5.61,3.24s4.44-1.22,5.61-3.24l2.93-5.08h3.99Z"/>
  <path class="cls-8" d="M31.65,7.07l3.7,6.41c.35.61.95.95,1.65.95h7.4c.7,0,1.3.35,1.65.95.35.61.35,1.3,0,1.91l-3.7,6.41c-.35.61-.35,1.3,0,1.91l3.7,6.41c.35.61.35,1.3,0,1.91-.35.61-.95.95-1.65.95h-7.4c-.7,0-1.3.35-1.65.95l-3.7,6.41c-.35.61-.95.95-1.65.95s-1.3-.35-1.65-.95l-3.7-6.41c-.35-.61-.95-.95-1.65-.95h-7.4c-.7,0-1.3-.35-1.65-.95-.35-.61-.35-1.3,0-1.91l3.7-6.41c.35-.61.35-1.3,0-1.91l-3.7-6.41c-.35-.61-.35-1.3,0-1.91.35-.61.95-.95,1.65-.95h7.4c.7,0,1.3-.35,1.65-.95l3.7-6.41c.35-.61.95-.95,1.65-.95s1.3.35,1.65.95"/>
  <path class="cls-7" d="M35.08,28.88c0,.69-.11,1.33-.34,1.92-.23.59-.56,1.1-1,1.53-.44.43-.97.77-1.6,1.01s-1.35.37-2.16.37c-.86,0-1.62-.12-2.27-.37-.65-.25-1.18-.58-1.6-1-.41-.42-.71-.92-.91-1.49-.2-.57-.29-1.18-.29-1.82,0-.92.2-1.68.61-2.29.41-.61.99-1.12,1.76-1.53v-.06c-.75-.46-1.28-1.01-1.58-1.67-.3-.65-.45-1.38-.45-2.18,0-.59.1-1.14.31-1.65s.52-.98.93-1.39c.39-.39.89-.7,1.49-.93.6-.23,1.28-.35,2.02-.35.79,0,1.49.11,2.08.32.59.21,1.07.49,1.45.83.39.35.69.78.9,1.27.21.5.31,1.04.31,1.62,0,.76-.18,1.44-.53,2.06-.35.61-.9,1.13-1.63,1.54v.06c.85.43,1.48.99,1.88,1.69.4.7.6,1.54.6,2.51ZM31.9,29.05c0-.52-.09-.92-.27-1.2s-.56-.59-1.15-.95c-.17-.1-.41-.23-.72-.38-.31-.15-.59-.29-.83-.42-.22.28-.42.62-.6,1.04-.18.41-.26.87-.26,1.36,0,.75.19,1.34.57,1.78s.88.67,1.5.67c.17,0,.36-.03.57-.1.22-.07.41-.17.57-.32.18-.17.33-.36.44-.58.11-.22.17-.52.17-.9ZM31.63,21.49c0-.54-.14-.98-.43-1.31-.29-.33-.68-.49-1.17-.49s-.85.15-1.14.44-.44.66-.44,1.08.09.78.26,1.04c.18.26.45.5.82.73.16.1.35.2.57.31.22.11.52.25.88.42.22-.37.39-.72.49-1.06.1-.34.16-.73.16-1.17Z"/>
</svg>