<?xml version="1.0" encoding="UTF-8"?>
<svg id="Layer_1" data-name="Layer 1" xmlns="http://www.w3.org/2000/svg" xmlns:xlink="http://www.w3.org/1999/xlink" viewBox="0 0 60 60">
  <defs>
    <style>
      .cls-1 {
        clip-path: url(#clippath);
      }

      .cls-2 {
        fill: #965d08;
        opacity: .4;
      }

      .cls-2, .cls-3, .cls-4, .cls-5, .cls-6, .cls-7, .cls-8 {
        stroke-width: 0px;
      }

      .cls-2, .cls-4, .cls-5, .cls-8 {
        fill-rule: evenodd;
      }

      .cls-3 {
        fill: url(#linear-gradient);
      }

      .cls-4 {
        fill: #00a6d9;
      }

      .cls-5 {
        fill: #3cb4d4;
      }

      .cls-6 {
        clip-rule: evenodd;
        fill: none;
      }

      .cls-7 {
        fill: url(#linear-gradient-2);
      }

      .cls-8 {
        fill: #fff;
      }
    </style>
    <clipPath id="clippath">
      <path class="cls-6" d="M37.99,10.81h6.41c1.99,0,3.79,1.04,4.79,2.76,1,1.73,1,3.8,0,5.53l-3.2,5.55,3.2,5.55c1,1.73,1,3.8,0,5.53-1,1.73-2.79,2.76-4.79,2.76h-6.41l-3.21,5.55c-1,1.73-2.79,2.76-4.79,2.76s-3.79-1.04-4.79-2.76l-3.21-5.55h-6.41c-1.99,0-3.79-1.04-4.79-2.76-1-1.73-1-3.8,0-5.53l3.2-5.55-3.2-5.55c-1-1.73-1-3.8,0-5.53,1-1.73,2.79-2.76,4.79-2.76h6.41l3.21-5.55c1-1.73,2.79-2.76,4.79-2.76s3.79,1.04,4.79,2.76l3.21,5.55Z"/>
    </clipPath>
    <linearGradient id="linear-gradient" x1="30" y1="43.19" x2="30" y2="2.5" gradientUnits="userSpaceOnUse">
      <stop offset="0" stop-color="#00a6d9"/>
      <stop offset=".57" stop-color="#24aed5"/>
      <stop offset="1" stop-color="#3cb4d4"/>
    </linearGradient>
    <linearGradient id="linear-gradient-2" x1="25.24" y1="32.87" x2="33.62" y2="18.36" xlink:href="#linear-gradient"/>
  </defs>
  <g class="cls-1">
    <rect class="cls-3" x="9.82" y="2.5" width="40.36" height="44.31"/>
  </g>
  <path class="cls-4" d="M42.52,57.5v-19.01h-4.53l-3.21,5.55c-1,1.73-2.79,2.76-4.79,2.76s-3.79-1.04-4.79-2.76l-3.21-5.55h-4.53v19.01l12.52-7.1,12.52,7.1Z"/>
  <path class="cls-5" d="M37.98,38.52l-3.19,5.53c-1,1.73-2.79,2.76-4.79,2.76s-3.79-1.04-4.79-2.76l-3.19-5.53v16.41l7.98-4.52,7.98,4.52v-16.41Z"/>
  <path class="cls-2" d="M42.52,39.44v-.95h-4.53l-3.21,5.55c-1,1.73-2.79,2.76-4.79,2.76s-3.79-1.04-4.79-2.76l-3.21-5.55h-4.53v.95h3.99l2.93,5.08c1.17,2.02,3.27,3.24,5.61,3.24s4.44-1.22,5.61-3.24l2.93-5.08h3.99Z"/>
  <path class="cls-8" d="M31.65,7.07l3.7,6.41c.35.61.95.95,1.65.95h7.4c.7,0,1.3.35,1.65.95.35.61.35,1.3,0,1.91l-3.7,6.41c-.35.61-.35,1.3,0,1.91l3.7,6.41c.35.61.35,1.3,0,1.91-.35.61-.95.95-1.65.95h-7.4c-.7,0-1.3.35-1.65.95l-3.7,6.41c-.35.61-.95.95-1.65.95s-1.3-.35-1.65-.95l-3.7-6.41c-.35-.61-.95-.95-1.65-.95h-7.4c-.7,0-1.3-.35-1.65-.95-.35-.61-.35-1.3,0-1.91l3.7-6.41c.35-.61.35-1.3,0-1.91l-3.7-6.41c-.35-.61-.35-1.3,0-1.91.35-.61.95-.95,1.65-.95h7.4c.7,0,1.3-.35,1.65-.95l3.7-6.41c.35-.61.95-.95,1.65-.95s1.3.35,1.65.95"/>
  <path class="cls-7" d="M34.91,24.45c0,1.36-.13,2.61-.38,3.74-.25,1.13-.65,2.1-1.18,2.91-.55.82-1.24,1.46-2.06,1.9-.82.44-1.83.66-3.02.66-.4,0-.82-.03-1.26-.1-.44-.06-.73-.12-.87-.17v-3.15h.25c.16.1.39.21.69.32s.71.17,1.23.17c.42,0,.83-.07,1.22-.21.39-.14.73-.36,1.01-.66.29-.32.54-.71.73-1.18.2-.47.33-1.06.4-1.77-.46.36-.89.63-1.28.82-.39.19-.88.29-1.47.29-.44,0-.87-.07-1.27-.22-.41-.15-.78-.37-1.11-.68-.44-.43-.79-.98-1.05-1.66s-.39-1.55-.39-2.63c0-.83.11-1.6.34-2.3.23-.71.55-1.32.97-1.84.41-.52.92-.92,1.53-1.21s1.28-.44,2.02-.44,1.41.13,1.99.39c.58.26,1.08.66,1.49,1.2.48.61.85,1.39,1.1,2.35.25.96.38,2.12.38,3.48ZM31.72,23.85c0-.87-.06-1.58-.18-2.14-.12-.56-.28-1-.5-1.32-.15-.23-.32-.39-.5-.49s-.39-.15-.61-.15c-.19,0-.38.05-.56.14s-.36.26-.52.5c-.15.21-.28.51-.38.91s-.16.84-.16,1.32c0,.52.05.94.16,1.27s.25.6.44.8c.18.19.39.33.63.41s.5.12.79.12c.24,0,.49-.04.75-.12.26-.08.46-.17.62-.25,0-.08,0-.19.01-.34,0-.15.01-.37.01-.66Z"/>
</svg>