<?xml version="1.0" encoding="utf-8"?>
<!-- Generator: Adobe Illustrator 28.4.1, SVG Export Plug-In . SVG Version: 6.00 Build 0)  -->
<svg version="1.1" id="Layer_1" xmlns="http://www.w3.org/2000/svg" xmlns:xlink="http://www.w3.org/1999/xlink" x="0px" y="0px"
	 viewBox="0 0 60 60" style="enable-background:new 0 0 60 60;" xml:space="preserve">
<style type="text/css">
	
		.st0{clip-path:url(#SVGID_00000076562555254074173560000005953134939993297059_);fill:url(#SVGID_00000106856578588109458010000016478672891313757346_);}
	.st1{fill-rule:evenodd;clip-rule:evenodd;fill:#5859CA;}
	.st2{fill-rule:evenodd;clip-rule:evenodd;fill:#2B71D7;}
	.st3{opacity:0.4;fill-rule:evenodd;clip-rule:evenodd;fill:#965D08;}
	.st4{fill-rule:evenodd;clip-rule:evenodd;fill:#FFFFFF;}
	.st5{fill:url(#SVGID_00000071519584897650910320000017213368429426768318_);}
	
		.st6{clip-path:url(#SVGID_00000085227607034805547660000001013098211996728478_);fill:url(#SVGID_00000124870820866286057850000005770289611542141324_);}
</style>
<g>
	<defs>
		<path id="SVGID_1_" d="M38,10.8h6.4c2,0,3.8,1,4.8,2.8c1,1.7,1,3.8,0,5.5L46,24.7l3.2,5.6c1,1.7,1,3.8,0,5.5
			c-1,1.7-2.8,2.8-4.8,2.8H38L34.8,44c-1,1.7-2.8,2.8-4.8,2.8s-3.8-1-4.8-2.8L22,38.5h-6.4c-2,0-3.8-1-4.8-2.8c-1-1.7-1-3.8,0-5.5
			l3.2-5.6l-3.2-5.6c-1-1.7-1-3.8,0-5.5c1-1.7,2.8-2.8,4.8-2.8H22l3.2-5.6c1-1.7,2.8-2.8,4.8-2.8s3.8,1,4.8,2.8L38,10.8z"/>
	</defs>
	<clipPath id="SVGID_00000026878159911805636480000008005310401142028214_">
		<use xlink:href="#SVGID_1_"  style="overflow:visible;"/>
	</clipPath>
	
		<linearGradient id="SVGID_00000068677609215730978270000017699527090769624764_" gradientUnits="userSpaceOnUse" x1="30" y1="43.189" x2="30" y2="2.4999">
		<stop  offset="0" style="stop-color:#5859CA"/>
		<stop  offset="0.4414" style="stop-color:#4265D0"/>
		<stop  offset="1" style="stop-color:#2B71D7"/>
	</linearGradient>
	
		<rect x="9.8" y="2.5" style="clip-path:url(#SVGID_00000026878159911805636480000008005310401142028214_);fill:url(#SVGID_00000068677609215730978270000017699527090769624764_);" width="40.4" height="44.3"/>
</g>
<path class="st1" d="M42.5,57.5v-19H38L34.8,44c-1,1.7-2.8,2.8-4.8,2.8s-3.8-1-4.8-2.8L22,38.5h-4.5v19L30,50.4L42.5,57.5z"/>
<path class="st2" d="M38,38.5L34.8,44c-1,1.7-2.8,2.8-4.8,2.8s-3.8-1-4.8-2.8L22,38.5v12.8v3.6l8-4.5l8,4.5v-3.6V38.5z"/>
<path class="st3" d="M42.5,39.4v-0.9H38L34.8,44c-1,1.7-2.8,2.8-4.8,2.8s-3.8-1-4.8-2.8L22,38.5h-4.5v0.9h4l2.9,5.1
	c1.2,2,3.3,3.2,5.6,3.2s4.4-1.2,5.6-3.2l2.9-5.1H42.5z"/>
<path class="st4" d="M31.7,7.1l3.7,6.4c0.4,0.6,1,1,1.7,1h7.4c0.7,0,1.3,0.3,1.7,1c0.4,0.6,0.4,1.3,0,1.9l-3.7,6.4
	c-0.4,0.6-0.4,1.3,0,1.9l3.7,6.4c0.4,0.6,0.4,1.3,0,1.9c-0.4,0.6-1,1-1.7,1H37c-0.7,0-1.3,0.3-1.7,1l-3.7,6.4c-0.4,0.6-1,1-1.7,1
	c-0.7,0-1.3-0.3-1.7-1l-3.7-6.4c-0.4-0.6-1-1-1.7-1h-7.4c-0.7,0-1.3-0.3-1.7-1c-0.4-0.6-0.4-1.3,0-1.9l3.7-6.4
	c0.4-0.6,0.4-1.3,0-1.9l-3.7-6.4c-0.4-0.6-0.4-1.3,0-1.9c0.4-0.6,1-1,1.7-1H23c0.7,0,1.3-0.3,1.7-1l3.7-6.4c0.4-0.6,1-1,1.7-1
	C30.7,6.1,31.3,6.5,31.7,7.1"/>
<g>
	
		<linearGradient id="SVGID_00000096049412347173641120000017782714743456664977_" gradientUnits="userSpaceOnUse" x1="30.302" y1="34.6679" x2="30.302" y2="23.4724">
		<stop  offset="0" style="stop-color:#5859CA"/>
		<stop  offset="0.4414" style="stop-color:#4265D0"/>
		<stop  offset="1" style="stop-color:#2B71D7"/>
	</linearGradient>
	<path style="fill:url(#SVGID_00000096049412347173641120000017782714743456664977_);" d="M34.5,31.7h-8.5v-2.8h2.7v-8.5h-2.7v-2.6
		c0.4,0,0.8,0,1.2-0.1c0.4-0.1,0.7-0.2,0.9-0.3c0.3-0.2,0.5-0.4,0.6-0.7s0.2-0.6,0.3-1.1h2.8v13.2h2.6V31.7z"/>
</g>
</svg>
