<?xml version="1.0" encoding="UTF-8"?>
<svg id="Layer_1" data-name="Layer 1" xmlns="http://www.w3.org/2000/svg" xmlns:xlink="http://www.w3.org/1999/xlink" viewBox="0 0 60 60">
  <defs>
    <style>
      .cls-1 {
        clip-path: url(#clippath);
      }

      .cls-2 {
        fill: #965d08;
        opacity: .4;
      }

      .cls-2, .cls-3, .cls-4, .cls-5, .cls-6, .cls-7, .cls-8, .cls-9 {
        stroke-width: 0px;
      }

      .cls-2, .cls-4, .cls-5, .cls-9 {
        fill-rule: evenodd;
      }

      .cls-3 {
        fill: url(#linear-gradient);
      }

      .cls-4 {
        fill: #53bbd2;
      }

      .cls-5 {
        fill: #1cadd7;
      }

      .cls-6 {
        clip-rule: evenodd;
        fill: none;
      }

      .cls-7 {
        fill: url(#linear-gradient-2);
      }

      .cls-8 {
        fill: url(#linear-gradient-3);
      }

      .cls-9 {
        fill: #fff;
      }
    </style>
    <clipPath id="clippath">
      <path class="cls-6" d="M37.99,10.81h6.41c1.99,0,3.79,1.04,4.79,2.76,1,1.73,1,3.8,0,5.53l-3.2,5.55,3.2,5.55c1,1.73,1,3.8,0,5.53-1,1.73-2.79,2.76-4.79,2.76h-6.41l-3.21,5.55c-1,1.73-2.79,2.76-4.79,2.76s-3.79-1.04-4.79-2.76l-3.21-5.55h-6.41c-1.99,0-3.79-1.04-4.79-2.76-1-1.73-1-3.8,0-5.53l3.2-5.55-3.2-5.55c-1-1.73-1-3.8,0-5.53,1-1.73,2.79-2.76,4.79-2.76h6.41l3.21-5.55c1-1.73,2.79-2.76,4.79-2.76s3.79,1.04,4.79,2.76l3.21,5.55Z"/>
    </clipPath>
    <linearGradient id="linear-gradient" x1="30" y1="43.19" x2="30" y2="2.5" gradientUnits="userSpaceOnUse">
      <stop offset="0" stop-color="#1cadd7"/>
      <stop offset=".53" stop-color="#3bb5d4"/>
      <stop offset="1" stop-color="#53bbd2"/>
    </linearGradient>
    <linearGradient id="linear-gradient-2" x1="24.17" y1="33.33" x2="24.17" y2="17.3" xlink:href="#linear-gradient"/>
    <linearGradient id="linear-gradient-3" x1="35.12" y1="33.67" x2="35.12" y2="17.02" xlink:href="#linear-gradient"/>
  </defs>
  <g class="cls-1">
    <rect class="cls-3" x="9.82" y="2.5" width="40.36" height="44.31"/>
  </g>
  <path class="cls-5" d="M42.52,57.5v-19.01h-4.53l-3.21,5.55c-1,1.73-2.79,2.76-4.79,2.76s-3.79-1.04-4.79-2.76l-3.21-5.55h-4.53v19.01l12.52-7.1,12.52,7.1Z"/>
  <path class="cls-4" d="M37.98,38.52l-3.19,5.53c-1,1.73-2.79,2.76-4.79,2.76s-3.79-1.04-4.79-2.76l-3.19-5.53v16.41l7.98-4.52,7.98,4.52v-16.41Z"/>
  <path class="cls-2" d="M42.52,39.44v-.95h-4.53l-3.21,5.55c-1,1.73-2.79,2.76-4.79,2.76s-3.79-1.04-4.79-2.76l-3.21-5.55h-4.53v.95h3.99l2.93,5.08c1.17,2.02,3.27,3.24,5.61,3.24s4.44-1.22,5.61-3.24l2.93-5.08h3.99Z"/>
  <path class="cls-9" d="M31.65,7.07l3.7,6.41c.35.61.95.95,1.65.95h7.4c.7,0,1.3.35,1.65.95.35.61.35,1.3,0,1.91l-3.7,6.41c-.35.61-.35,1.3,0,1.91l3.7,6.41c.35.61.35,1.3,0,1.91-.35.61-.95.95-1.65.95h-7.4c-.7,0-1.3.35-1.65.95l-3.7,6.41c-.35.61-.95.95-1.65.95s-1.3-.35-1.65-.95l-3.7-6.41c-.35-.61-.95-.95-1.65-.95h-7.4c-.7,0-1.3-.35-1.65-.95-.35-.61-.35-1.3,0-1.91l3.7-6.41c.35-.61.35-1.3,0-1.91l-3.7-6.41c-.35-.61-.35-1.3,0-1.91.35-.61.95-.95,1.65-.95h7.4c.7,0,1.3-.35,1.65-.95l3.7-6.41c.35-.61.95-.95,1.65-.95s1.3.35,1.65.95"/>
  <g>
    <path class="cls-7" d="M28.42,33.33h-8.49v-2.79h2.71v-8.45h-2.71v-2.61c.4,0,.79-.03,1.18-.1.39-.06.7-.17.94-.31.28-.17.49-.4.64-.69s.24-.65.26-1.08h2.81v13.25h2.65v2.79Z"/>
    <path class="cls-8" d="M40.08,25.33c0,1.38-.09,2.59-.27,3.63s-.46,1.91-.85,2.6c-.39.69-.9,1.22-1.53,1.57-.63.36-1.4.53-2.3.53s-1.67-.18-2.3-.53c-.63-.35-1.14-.89-1.54-1.59-.39-.7-.68-1.57-.85-2.59-.18-1.03-.27-2.23-.27-3.6s.09-2.63.26-3.63c.18-1,.47-1.87.88-2.59.4-.71.92-1.24,1.55-1.58.63-.35,1.39-.52,2.26-.52.93,0,1.7.18,2.32.54.62.36,1.13.9,1.52,1.62.39.7.67,1.57.85,2.6s.26,2.22.26,3.56ZM36.84,25.33c0-1.98-.13-3.36-.39-4.16-.26-.8-.7-1.2-1.32-1.2s-1.06.4-1.32,1.2c-.27.8-.4,2.19-.4,4.18s.13,3.33.4,4.14c.26.81.7,1.22,1.32,1.22s1.06-.41,1.32-1.22c.26-.81.4-2.2.4-4.16Z"/>
  </g>
</svg>