<?xml version="1.0" encoding="UTF-8"?>
<svg id="Layer_1" data-name="Layer 1" xmlns="http://www.w3.org/2000/svg" xmlns:xlink="http://www.w3.org/1999/xlink" viewBox="0 0 60 60">
  <defs>
    <style>
      .cls-1 {
        clip-path: url(#clippath);
      }

      .cls-2 {
        fill: #965d08;
        opacity: .4;
      }

      .cls-2, .cls-3, .cls-4, .cls-5, .cls-6, .cls-7, .cls-8 {
        stroke-width: 0px;
      }

      .cls-2, .cls-4, .cls-6, .cls-8 {
        fill-rule: evenodd;
      }

      .cls-3 {
        fill: url(#linear-gradient);
      }

      .cls-4 {
        fill: #2b71d7;
      }

      .cls-5 {
        clip-rule: evenodd;
        fill: none;
      }

      .cls-6 {
        fill: #0085dd;
      }

      .cls-7 {
        fill: url(#linear-gradient-2);
      }

      .cls-8 {
        fill: #fff;
      }
    </style>
    <clipPath id="clippath">
      <path class="cls-5" d="M37.99,10.81h6.41c1.99,0,3.79,1.04,4.79,2.76,1,1.73,1,3.8,0,5.53l-3.2,5.55,3.2,5.55c1,1.73,1,3.8,0,5.53-1,1.73-2.79,2.76-4.79,2.76h-6.41l-3.21,5.55c-1,1.73-2.79,2.76-4.79,2.76s-3.79-1.04-4.79-2.76l-3.21-5.55h-6.41c-1.99,0-3.79-1.04-4.79-2.76-1-1.73-1-3.8,0-5.53l3.2-5.55-3.2-5.55c-1-1.73-1-3.8,0-5.53,1-1.73,2.79-2.76,4.79-2.76h6.41l3.21-5.55c1-1.73,2.79-2.76,4.79-2.76s3.79,1.04,4.79,2.76l3.21,5.55Z"/>
    </clipPath>
    <linearGradient id="linear-gradient" x1="30" y1="43.19" x2="30" y2="2.5" gradientUnits="userSpaceOnUse">
      <stop offset="0" stop-color="#2b71d7"/>
      <stop offset=".42" stop-color="#177ad9"/>
      <stop offset="1" stop-color="#0085dd"/>
    </linearGradient>
    <linearGradient id="linear-gradient-2" x1="30.03" y1="33.26" x2="30.03" y2="16.6" xlink:href="#linear-gradient"/>
  </defs>
  <g class="cls-1">
    <rect class="cls-3" x="9.82" y="2.5" width="40.36" height="44.31"/>
  </g>
  <path class="cls-4" d="M42.52,57.5v-19.01h-4.53l-3.21,5.55c-1,1.73-2.79,2.76-4.79,2.76s-3.79-1.04-4.79-2.76l-3.21-5.55h-4.53v19.01l12.52-7.1,12.52,7.1Z"/>
  <path class="cls-6" d="M37.98,38.52l-3.19,5.53c-1,1.73-2.79,2.76-4.79,2.76s-3.79-1.04-4.79-2.76l-3.19-5.53v16.41l7.98-4.52,7.98,4.52v-16.41Z"/>
  <path class="cls-2" d="M42.52,39.44v-.95h-4.53l-3.21,5.55c-1,1.73-2.79,2.76-4.79,2.76s-3.79-1.04-4.79-2.76l-3.21-5.55h-4.53v.95h3.99l2.93,5.08c1.17,2.02,3.27,3.24,5.61,3.24s4.44-1.22,5.61-3.24l2.93-5.08h3.99Z"/>
  <path class="cls-8" d="M31.65,7.07l3.7,6.41c.35.61.95.95,1.65.95h7.4c.7,0,1.3.35,1.65.95.35.61.35,1.3,0,1.91l-3.7,6.41c-.35.61-.35,1.3,0,1.91l3.7,6.41c.35.61.35,1.3,0,1.91-.35.61-.95.95-1.65.95h-7.4c-.7,0-1.3.35-1.65.95l-3.7,6.41c-.35.61-.95.95-1.65.95s-1.3-.35-1.65-.95l-3.7-6.41c-.35-.61-.95-.95-1.65-.95h-7.4c-.7,0-1.3-.35-1.65-.95-.35-.61-.35-1.3,0-1.91l3.7-6.41c.35-.61.35-1.3,0-1.91l-3.7-6.41c-.35-.61-.35-1.3,0-1.91.35-.61.95-.95,1.65-.95h7.4c.7,0,1.3-.35,1.65-.95l3.7-6.41c.35-.61.95-.95,1.65-.95s1.3.35,1.65.95"/>
  <path class="cls-7" d="M34.8,28.08c0,.78-.12,1.49-.35,2.14-.23.64-.57,1.19-1.02,1.64-.45.45-.99.8-1.6,1.04-.61.24-1.36.36-2.24.36-1,0-1.86-.1-2.58-.31-.72-.21-1.3-.44-1.75-.7v-3.47h.31c.47.37,1.03.69,1.66.97.64.27,1.22.41,1.74.41.31,0,.65-.03,1.01-.1.37-.07.67-.22.92-.45.2-.18.35-.4.47-.66.12-.26.18-.63.18-1.11s-.08-.84-.25-1.09c-.17-.25-.39-.44-.66-.55-.28-.12-.61-.19-.99-.2-.39-.01-.73-.02-1.02-.02h-.55v-2.81h.51c.39,0,.75-.02,1.08-.06.33-.04.61-.13.84-.26.23-.14.41-.33.54-.57.13-.24.19-.57.19-.99,0-.32-.06-.59-.18-.79-.12-.2-.27-.36-.45-.48-.21-.13-.45-.21-.73-.26-.28-.04-.51-.06-.71-.06-.32,0-.64.05-.97.14-.33.09-.65.21-.96.35-.24.11-.5.26-.76.45s-.46.32-.59.41h-.27v-3.43c.44-.24,1.04-.46,1.79-.68.75-.22,1.52-.33,2.3-.33s1.43.08,1.99.25c.56.17,1.04.4,1.44.72.44.34.76.76.98,1.28.22.52.33,1.1.33,1.76,0,.91-.21,1.71-.63,2.39-.42.68-.98,1.13-1.67,1.33v.15c.31.06.6.15.89.29.29.14.57.36.85.67.26.28.47.64.64,1.08s.25.97.25,1.57Z"/>
</svg>