<?xml version="1.0" encoding="UTF-8"?>
<svg id="Layer_1" data-name="Layer 1" xmlns="http://www.w3.org/2000/svg" xmlns:xlink="http://www.w3.org/1999/xlink" viewBox="0 0 60 60">
  <defs>
    <style>
      .cls-1 {
        clip-path: url(#clippath);
      }

      .cls-2 {
        fill: #965d08;
        opacity: .4;
      }

      .cls-2, .cls-3, .cls-4, .cls-5, .cls-6, .cls-7, .cls-8 {
        stroke-width: 0px;
      }

      .cls-2, .cls-4, .cls-7, .cls-8 {
        fill-rule: evenodd;
      }

      .cls-3 {
        fill: url(#linear-gradient);
      }

      .cls-4 {
        fill: #007bdb;
      }

      .cls-5 {
        clip-rule: evenodd;
        fill: none;
      }

      .cls-6 {
        fill: url(#linear-gradient-2);
      }

      .cls-7 {
        fill: #fff;
      }

      .cls-8 {
        fill: #4465d2;
      }
    </style>
    <clipPath id="clippath">
      <path class="cls-5" d="M37.99,10.81h6.41c1.99,0,3.79,1.04,4.79,2.76,1,1.73,1,3.8,0,5.53l-3.2,5.55,3.2,5.55c1,1.73,1,3.8,0,5.53-1,1.73-2.79,2.76-4.79,2.76h-6.41l-3.21,5.55c-1,1.73-2.79,2.76-4.79,2.76s-3.79-1.04-4.79-2.76l-3.21-5.55h-6.41c-1.99,0-3.79-1.04-4.79-2.76-1-1.73-1-3.8,0-5.53l3.2-5.55-3.2-5.55c-1-1.73-1-3.8,0-5.53,1-1.73,2.79-2.76,4.79-2.76h6.41l3.21-5.55c1-1.73,2.79-2.76,4.79-2.76s3.79,1.04,4.79,2.76l3.21,5.55Z"/>
    </clipPath>
    <linearGradient id="linear-gradient" x1="30" y1="43.19" x2="30" y2="2.5" gradientUnits="userSpaceOnUse">
      <stop offset="0" stop-color="#4465d2"/>
      <stop offset=".61" stop-color="#1773d7"/>
      <stop offset="1" stop-color="#007bdb"/>
    </linearGradient>
    <linearGradient id="linear-gradient-2" x1="30.4" y1="32.37" x2="30.4" y2="16.06" xlink:href="#linear-gradient"/>
  </defs>
  <g class="cls-1">
    <rect class="cls-3" x="9.82" y="2.5" width="40.36" height="44.31"/>
  </g>
  <path class="cls-8" d="M42.52,57.5v-19.01h-4.53l-3.21,5.55c-1,1.73-2.79,2.76-4.79,2.76s-3.79-1.04-4.79-2.76l-3.21-5.55h-4.53v19.01l12.52-7.1,12.52,7.1Z"/>
  <path class="cls-4" d="M37.98,38.52l-3.19,5.53c-1,1.73-2.79,2.76-4.79,2.76s-3.79-1.04-4.79-2.76l-3.19-5.53v16.41l7.98-4.52,7.98,4.52v-16.41Z"/>
  <path class="cls-2" d="M42.52,39.44v-.95h-4.53l-3.21,5.55c-1,1.73-2.79,2.76-4.79,2.76s-3.79-1.04-4.79-2.76l-3.21-5.55h-4.53v.95h3.99l2.93,5.08c1.17,2.02,3.27,3.24,5.61,3.24s4.44-1.22,5.61-3.24l2.93-5.08h3.99Z"/>
  <path class="cls-7" d="M31.65,7.07l3.7,6.41c.35.61.95.95,1.65.95h7.4c.7,0,1.3.35,1.65.95.35.61.35,1.3,0,1.91l-3.7,6.41c-.35.61-.35,1.3,0,1.91l3.7,6.41c.35.61.35,1.3,0,1.91-.35.61-.95.95-1.65.95h-7.4c-.7,0-1.3.35-1.65.95l-3.7,6.41c-.35.61-.95.95-1.65.95s-1.3-.35-1.65-.95l-3.7-6.41c-.35-.61-.95-.95-1.65-.95h-7.4c-.7,0-1.3-.35-1.65-.95-.35-.61-.35-1.3,0-1.91l3.7-6.41c.35-.61.35-1.3,0-1.91l-3.7-6.41c-.35-.61-.35-1.3,0-1.91.35-.61.95-.95,1.65-.95h7.4c.7,0,1.3-.35,1.65-.95l3.7-6.41c.35-.61.95-.95,1.65-.95s1.3.35,1.65.95"/>
  <path class="cls-6" d="M35.12,32.37h-9.44v-2.61c.8-.79,1.52-1.53,2.15-2.23.64-.7,1.19-1.37,1.68-2,.63-.82,1.08-1.55,1.36-2.17.28-.62.42-1.26.42-1.92,0-.74-.18-1.32-.54-1.71-.36-.4-.85-.6-1.49-.6-.33,0-.64.05-.93.15-.29.1-.59.23-.88.39-.29.17-.54.33-.75.5l-.47.39h-.25v-3.49c.36-.21.93-.44,1.7-.66s1.51-.34,2.23-.34c1.52,0,2.68.42,3.46,1.27.79.85,1.18,2.03,1.18,3.57,0,.95-.18,1.87-.54,2.78-.36.91-.95,1.88-1.78,2.92-.52.64-1.02,1.21-1.51,1.7-.49.5-.84.85-1.06,1.06h5.45v3.02Z"/>
</svg>